<svg width="128" height="128" xmlns="http://www.w3.org/2000/svg" clip-rule="evenodd"><path fill="none" d="M-1-1h582v402H-1z"/><g><path fill="none" d="M.441 0h128v128h-128z"/><path fill="#5a5b5b" d="M32.273 18.008c.493.219.58.334.714.447a146.57 146.57 0 007.026 6.415s-.846.787 1.591-.623a46.873 46.873 0 0112.241-4.852l.177-.041c.263-3.26.414-6.529.456-9.8 0 0 .322-1.765 2.224-2.026a58.15 58.15 0 012.315-.269 57.563 57.563 0 0113.421.305s1.822.269 1.967 1.99c.041 3.18.185 6.342.432 9.503 0 0-1.154-.042 1.566.685a46.87 46.87 0 0112.085 5.225l.156.096c2.49-2.12 4.908-4.325 7.252-6.608 0 0 1.359-1.23 4.431 1.259a57.124 57.124 0 019.362 9.621c.603.787 1.218 2.12.297 3.21a147.167 147.167 0 00-6.415 7.026s-.786-.845.624 1.592a46.767 46.767 0 014.851 12.24l.042.178c3.26.262 6.528.413 9.8.456 0 0 1.722-.13 2.093 2.738a57.555 57.555 0 01-.033 14.708c-.131.988-.637 2.36-2.06 2.48a147.48 147.48 0 00-9.504.432s.041-1.153-.684 1.566a46.866 46.866 0 01-5.225 12.086l-.096.155a145.225 145.225 0 006.607 7.252s1.231 1.359-1.259 4.432a56.896 56.896 0 01-10.033 9.675c-2.054 1.544-4.244-1.46-6.649-3.64-1.391-1.26-3.401-2.984-3.401-2.984a46.724 46.724 0 01-13.606 5.667l-.177.042c-.263 3.26-.414 6.529-.456 9.8 0 0-.322 1.765-2.224 2.026a58.15 58.15 0 01-2.315.269 57.563 57.563 0 01-13.421-.305s-1.822-.269-1.967-1.99c-.006-.471-.014-.941-.023-1.412-.063-2.702-.198-5.4-.409-8.092 0 0 1.155.042-1.566-.684a46.744 46.744 0 01-12.085-5.225l-.156-.096a146.653 146.653 0 00-7.252 6.607s-1.476 1.021-3.005-.14a57.571 57.571 0 01-11.101-11.152s-1.099-1.478.016-2.798a146.685 146.685 0 006.415-7.026s.786.846-.624-1.591a46.913 46.913 0 01-4.851-12.24l-.042-.178a145.69 145.69 0 00-9.8-.456s-1.831-.091-2.243-4.024a56.782 56.782 0 01.253-13.936c.358-2.527 4.025-1.967 7.275-2.127 1.875-.093 4.515-.295 4.515-.295a46.724 46.724 0 015.613-13.628l.096-.155a145.247 145.247 0 00-6.607-7.253s-1.02-1.475.14-3.004a57.597 57.597 0 0110.945-10.946s.78-1.017 2.291-.587zm31.928-7.007a55.385 55.385 0 00-5.521.313l-.233.026c-.012.508-.027 1.016-.044 1.524-.102 2.86.094 5.794-.569 8.593-.414 1.748-3.353 1.835-5.544 2.5a42.332 42.332 0 00-11.102 5.253s-1.17.745-2.387-.131a151.134 151.134 0 01-7.303-6.502l-.054-.052a54.052 54.052 0 00-8.18 8.107l-.297.37c2.332 2.442 4.957 4.731 6.72 7.588.943 1.529-1.068 3.658-2.153 5.688a42.387 42.387 0 00-4.136 11.564s-.299 1.355-1.78 1.596c-3.254.295-6.506.483-9.761.566l-.075.001a54.007 54.007 0 00-.052 11.517l.052.472c3.375.078 6.851-.16 10.117.614 1.706.404 1.818 3.25 2.426 5.298a42.335 42.335 0 005.326 11.347s.746 1.17-.13 2.387a150.324 150.324 0 01-6.503 7.303l-.051.054a54.059 54.059 0 008.107 8.181l.37.297c2.442-2.332 4.732-4.959 7.588-6.721 1.529-.943 3.662 1.071 5.688 2.153a42.33 42.33 0 0011.564 4.136s1.354.3 1.595 1.78c.294 3.241.483 6.499.566 9.762l.002.075c3.821.426 7.686.444 11.517.051l.472-.051c.078-3.376-.161-6.854.613-10.118.415-1.748 3.347-1.833 5.544-2.499a42.349 42.349 0 0011.102-5.253s1.17-.746 2.387.13a150.49 150.49 0 017.303 6.503l.054.052a54.063 54.063 0 008.18-8.108l.297-.37c-2.332-2.441-4.957-4.73-6.72-7.587-.943-1.529 1.067-3.658 2.153-5.689a42.396 42.396 0 004.136-11.564s.3-1.354 1.78-1.595c3.24-.294 6.498-.483 9.761-.566l.075-.002c.426-3.822.444-7.687.052-11.517l-.052-.472c-3.375-.077-6.852.161-10.117-.613-1.798-.426-1.874-3.528-2.575-5.79a41.902 41.902 0 00-1.815-4.793 42.648 42.648 0 00-3.362-6.062s-.746-1.17.13-2.388a150.774 150.774 0 016.503-7.302l.051-.055a54.099 54.099 0 00-8.107-8.18l-.37-.297c-2.442 2.332-4.732 4.959-7.588 6.72-1.491.92-3.574-1.007-5.462-2.031a42.108 42.108 0 00-4.886-2.256 42.692 42.692 0 00-6.904-2.001s-1.354-.3-1.595-1.78c-.044-.48-.086-.961-.126-1.442a150.9 150.9 0 01-.44-8.32s-3.094-.421-6.237-.414zM64.596 40c10.976.105 21.319 8.532 23.416 19.461 2.05 10.686-4.177 22.395-14.231 26.651-11.183 4.733-25.629-.632-30.97-11.709-6.827-14.158 3.705-34.011 21.167-34.399.206-.003.412-.004.618-.004zm-.284 4c-11.307.108-21.293 11.238-19.676 22.798 1.324 9.467 10.309 17.262 19.935 17.201 11.686-.074 21.901-12.137 19.464-24.029-1.828-8.923-10.307-16-19.723-15.97z"/></g></svg>