<?xml version="1.0"?>
<svg xmlns="http://www.w3.org/2000/svg" xmlns:xlink="http://www.w3.org/1999/xlink" xmlns:svgjs="http://svgjs.com/svgjs" version="1.1" width="512" height="512" x="0" y="0" viewBox="0 0 64 64" style="enable-background:new 0 0 512 512" xml:space="preserve" class=""><g><g xmlns="http://www.w3.org/2000/svg" id="work_time" data-name="work time"><path d="M21,22v2.383L23.447,19H20a1,1,0,0,1-1-1V15.617L16.553,21H20A1,1,0,0,1,21,22Z" fill="#5a5b5b" data-original="#000000" style="" class=""/><path d="M8.5,23.42a14.306,14.306,0,0,0,.92,2.25,1,1,0,0,1-.06,1.05l-2.2,3.07,3.05,3.05,3.07-2.2a1,1,0,0,1,1.05-.06,12.564,12.564,0,0,0,2.2.91,1.012,1.012,0,0,1,.7.79L17.85,36h4.3l.62-3.72a1.012,1.012,0,0,1,.7-.79,12.564,12.564,0,0,0,2.2-.91,1,1,0,0,1,1.05.06l3.07,2.2,3.05-3.05-2.2-3.07a1,1,0,0,1-.06-1.05,12.564,12.564,0,0,0,.91-2.2,1.012,1.012,0,0,1,.79-.7L36,22.15v-4.3l-3.72-.62a1.012,1.012,0,0,1-.79-.7,12.564,12.564,0,0,0-.91-2.2,1,1,0,0,1,.06-1.05l2.2-3.07L29.79,7.16l-3.07,2.2a1,1,0,0,1-1.05.06,12.564,12.564,0,0,0-2.2-.91,1.012,1.012,0,0,1-.7-.79L22.15,4h-4.3l-.62,3.72a1.012,1.012,0,0,1-.7.79,12.564,12.564,0,0,0-2.2.91,1,1,0,0,1-1.05-.06l-3.07-2.2L7.16,10.21l2.2,3.07a1.014,1.014,0,0,1,.09,1.01,14.275,14.275,0,0,0-.95,2.29,1,1,0,0,1-.78.65L4,17.85v4.3l3.72.62A1,1,0,0,1,8.5,23.42ZM32,19h2v2H32ZM29.192,9.394l1.414,1.414-1.414,1.414-1.414-1.414Zm0,18.384,1.414,1.414-1.414,1.414-1.414-1.414ZM21,34H19V32h2ZM19,6h2V8H19ZM14.09,21.586l5-11A1,1,0,0,1,21,11v6h4a1,1,0,0,1,.91,1.414l-5,11A1,1,0,0,1,20,30a1.025,1.025,0,0,1-.212-.022A1,1,0,0,1,19,29V23H15a1,1,0,0,1-.91-1.414Zm-4.7-10.778,1.414-1.414,1.414,1.414-1.414,1.414Zm1.414,16.97,1.414,1.414-1.414,1.414L9.394,29.192ZM6,19H8v2H6Z" fill="#5a5b5b" data-original="#000000" style="" class=""/><circle cx="53" cy="11" r="2" fill="#5a5b5b" data-original="#000000" style="" class=""/><path d="M58.779,9.476a1,1,0,0,1-.614-1.485l.647-1.079L57.088,5.188l-1.079.647a1,1,0,0,1-1.485-.615L54.219,4H51.781l-.3,1.22a1,1,0,0,1-1.485.615l-1.079-.647L47.188,6.912l.647,1.079a1,1,0,0,1-.614,1.485L46,9.781v2.438l1.221.3a1,1,0,0,1,.614,1.485l-.647,1.079,1.724,1.724,1.079-.647a1,1,0,0,1,1.485.614l.3,1.221h2.438l.3-1.221a1,1,0,0,1,1.485-.614l1.079.647,1.724-1.724-.647-1.079a1,1,0,0,1,.614-1.485l1.221-.3V9.781ZM53,15a4,4,0,1,1,4-4A4,4,0,0,1,53,15Z" fill="#5a5b5b" data-original="#000000" style="" class=""/><path d="M16.1,50.888a1,1,0,0,1,.067-.9l.647-1.079-1.724-1.724-1.079.647a1,1,0,0,1-1.485-.615l-.3-1.22H9.781l-.3,1.22a1,1,0,0,1-1.485.615l-1.079-.647L5.188,48.912l.647,1.079a1,1,0,0,1-.614,1.485L4,51.781v2.438l1.221.3a1,1,0,0,1,.614,1.485l-.647,1.079,1.724,1.724,1.079-.647a1,1,0,0,1,1.485.614L9.781,60h2.438l.3-1.221a1,1,0,0,1,1.485-.614l1.079.647,1.724-1.724-.647-1.079a1,1,0,0,1,.614-1.485l1.221-.3V51.781l-1.221-.3A1,1,0,0,1,16.1,50.888ZM11,57a4,4,0,1,1,4-4A4,4,0,0,1,11,57Z" fill="#5a5b5b" data-original="#000000" style="" class=""/><circle cx="11" cy="53" r="2" fill="#5a5b5b" data-original="#000000" style="" class=""/><path d="M36.535,4H45V2H36a1,1,0,0,0-.832.445l-2,3,1.664,1.11Z" fill="#5a5b5b" data-original="#000000" style="" class=""/><path d="M27.465,60H19v2h9a1,1,0,0,0,.832-.445l2-3-1.664-1.11Z" fill="#5a5b5b" data-original="#000000" style="" class=""/><path d="M59.95,42A16.985,16.985,0,0,0,44,26.05V29H42V26.04a16.657,16.657,0,0,0-7.69,2.37l.65.91a1.015,1.015,0,0,1-.11,1.29l-4.24,4.24a1.015,1.015,0,0,1-1.29.11l-.91-.65A16.657,16.657,0,0,0,26.04,42H29v2H26.05A16.985,16.985,0,0,0,42,59.95V57h2v2.95A16.985,16.985,0,0,0,59.95,44H57V42ZM51,44H43a1,1,0,0,1-1-1V31h2V42h7Z" fill="#5a5b5b" data-original="#000000" style="" class=""/></g></g></svg>
